<?xml version="1.0" encoding="utf-8"?>
<!-- Generator: Adobe Illustrator 25.0.0, SVG Export Plug-In . SVG Version: 6.00 Build 0)  -->
<svg version="1.1" xmlns="http://www.w3.org/2000/svg" xmlns:xlink="http://www.w3.org/1999/xlink" x="0px" y="0px"
	 viewBox="0 0 1080 1080" style="enable-background:new 0 0 1080 1080;" xml:space="preserve">
<style type="text/css">
	.st0{display:none;fill:#6B1A8E;}
	.st1{fill:#F2F2F2;}
	.st2{fill:#CDCCCA;}
	.st3{fill:#6B1A8E;}
	.st4{fill:#353F49;}
	.st5{fill:#12B0B6;}
	.st6{fill:#92E0EA;}
	.st7{fill:url(#SVGID_1_);stroke:#000000;stroke-width:4;stroke-miterlimit:10;}
	.st8{fill:url(#SVGID_2_);}
	.st9{fill:url(#SVGID_3_);}
	.st10{fill:url(#SVGID_4_);}
	.st11{fill:url(#SVGID_5_);}
	.st12{opacity:0.3;}
	.st13{fill:url(#SVGID_6_);}
	.st14{fill:url(#SVGID_7_);stroke:#000000;stroke-width:4;stroke-miterlimit:10;}
	.st15{fill:url(#SVGID_8_);}
	.st16{fill:url(#SVGID_9_);}
	.st17{fill:url(#SVGID_10_);}
	.st18{fill:url(#SVGID_11_);}
	.st19{fill:url(#SVGID_12_);}
	.st20{fill:url(#SVGID_13_);stroke:#000000;stroke-width:4;stroke-miterlimit:10;}
	.st21{fill:url(#SVGID_14_);}
	.st22{fill:url(#SVGID_15_);}
	.st23{fill:url(#SVGID_16_);}
	.st24{fill:url(#SVGID_17_);}
	.st25{fill:url(#SVGID_18_);}
	.st26{fill:url(#SVGID_19_);}
	.st27{opacity:0.55;}
	.st28{fill:#FFFFFF;}
	.st29{display:none;opacity:0.3;}
	.st30{display:inline;fill:#000072;}
	.st31{display:none;}
	.st32{display:inline;opacity:0.3;}
	.st33{fill:#020202;}
	.st34{font-family:'Baloo2-ExtraBold';}
	.st35{font-size:158.3511px;}
	.st36{display:none;fill:#FFFFFF;}
	.st37{fill:url(#SVGID_20_);stroke:#000000;stroke-width:4;stroke-miterlimit:10;}
	.st38{fill:url(#SVGID_21_);}
	.st39{fill:url(#SVGID_22_);}
	.st40{fill:url(#SVGID_23_);}
	.st41{fill:url(#SVGID_24_);}
	.st42{fill:url(#SVGID_25_);}
	.st43{fill:url(#SVGID_26_);stroke:#000000;stroke-width:4;stroke-miterlimit:10;}
	.st44{fill:url(#SVGID_27_);}
	.st45{fill:url(#SVGID_28_);}
	.st46{fill:url(#SVGID_29_);}
	.st47{fill:url(#SVGID_30_);}
	.st48{fill:url(#SVGID_31_);}
	.st49{fill:url(#SVGID_32_);stroke:#000000;stroke-width:4;stroke-miterlimit:10;}
	.st50{fill:url(#SVGID_33_);}
	.st51{fill:url(#SVGID_34_);}
	.st52{fill:url(#SVGID_35_);}
	.st53{fill:url(#SVGID_36_);}
	.st54{fill:url(#SVGID_37_);}
	.st55{fill:url(#SVGID_38_);}
	.st56{display:none;fill:#12B0B6;}
	.st57{fill:url(#SVGID_39_);stroke:#000000;stroke-width:4;stroke-miterlimit:10;}
	.st58{fill:url(#SVGID_40_);}
	.st59{fill:url(#SVGID_41_);}
	.st60{fill:url(#SVGID_42_);}
	.st61{fill:url(#SVGID_43_);}
	.st62{fill:url(#SVGID_44_);}
	.st63{fill:url(#SVGID_45_);stroke:#000000;stroke-width:4;stroke-miterlimit:10;}
	.st64{fill:url(#SVGID_46_);}
	.st65{fill:url(#SVGID_47_);}
	.st66{fill:url(#SVGID_48_);}
	.st67{fill:url(#SVGID_49_);}
	.st68{fill:url(#SVGID_50_);}
	.st69{fill:url(#SVGID_51_);stroke:#000000;stroke-width:4;stroke-miterlimit:10;}
	.st70{fill:url(#SVGID_52_);}
	.st71{fill:url(#SVGID_53_);}
	.st72{fill:url(#SVGID_54_);}
	.st73{fill:url(#SVGID_55_);}
	.st74{fill:url(#SVGID_56_);}
	.st75{fill:url(#SVGID_57_);}
	.st76{fill:url(#SVGID_58_);stroke:url(#SVGID_59_);stroke-width:4;stroke-miterlimit:10;}
	.st77{fill:url(#SVGID_60_);}
	.st78{fill:url(#SVGID_61_);}
	.st79{fill:url(#SVGID_62_);}
	.st80{fill:url(#SVGID_63_);}
	.st81{fill:url(#SVGID_64_);}
	.st82{fill:url(#SVGID_65_);stroke:url(#SVGID_66_);stroke-width:4;stroke-miterlimit:10;}
	.st83{fill:url(#SVGID_67_);}
	.st84{fill:url(#SVGID_68_);}
	.st85{fill:url(#SVGID_69_);}
	.st86{fill:url(#SVGID_70_);}
	.st87{fill:url(#SVGID_71_);}
	.st88{fill:url(#SVGID_72_);stroke:url(#SVGID_73_);stroke-width:4;stroke-miterlimit:10;}
	.st89{fill:url(#SVGID_74_);}
	.st90{fill:url(#SVGID_75_);}
	.st91{fill:url(#SVGID_76_);}
	.st92{fill:url(#SVGID_77_);}
	.st93{fill:url(#SVGID_78_);}
	.st94{fill:url(#SVGID_79_);}
	.st95{opacity:0.11;}
	.st96{fill:#333333;}
</style>
<g id="roxo">
	<g>
		<rect x="0.25" y="-0.5" class="st0" width="1080" height="1080"/>
		<g>
			<g>
				<g>
					<g>
						<path class="st1" d="M124.44,585.7c14.3,90.45,99.22,152.17,189.66,137.87c90.45-14.3,152.17-99.22,137.87-189.67
							c-14.3-90.44-99.22-152.17-189.67-137.86C171.86,410.34,110.14,495.25,124.44,585.7z M413.06,540.05
							c10.91,68.96-36.15,133.7-105.11,144.6C239,695.56,174.26,648.5,163.36,579.54c-10.91-68.96,36.15-133.7,105.11-144.6
							C337.42,424.04,402.16,471.09,413.06,540.05z"/>
					</g>
				</g>
				<g>
					<path class="st2" d="M273.7,468.04c50.68-8.01,98.25,26.57,106.27,77.24c8.01,50.67-26.57,98.25-77.24,106.27
						c-50.67,8.01-98.25-26.57-106.26-77.24C188.44,523.63,223.02,476.06,273.7,468.04z"/>
				</g>
				<g>
					<path class="st3" d="M278.2,496.5c34.96-5.53,67.78,18.33,73.31,53.29c5.53,34.96-18.32,67.78-53.29,73.31
						c-34.96,5.53-67.78-18.33-73.31-53.29C219.38,534.85,243.24,502.03,278.2,496.5z"/>
				</g>
				<g>
					<g>
						<polygon class="st4" points="303.12,559.82 265.58,657.62 249.88,651.59 283.95,562.83 197.91,456.03 211.01,445.48 						"/>
					</g>
				</g>
				<g>
					<path class="st5" d="M283.25,528.44c17.33-2.74,33.58,9.08,36.32,26.4c2.74,17.32-9.08,33.58-26.4,36.32
						c-17.32,2.74-33.58-9.08-36.32-26.4C254.11,547.44,265.93,531.18,283.25,528.44z"/>
				</g>
				<g>
					<g>
						<path class="st1" d="M163.36,579.54c-10.91-68.96,36.15-133.7,105.11-144.6c16.16-2.56,32.08-1.89,47.14,1.45l8.54-38.5
							c-19.75-4.39-40.64-5.22-61.84-1.86c-90.44,14.3-152.17,99.22-137.86,189.66c0.28,1.75,0.59,3.48,0.92,5.2l38.72-7.4
							C163.83,582.19,163.57,580.88,163.36,579.54z"/>
					</g>
					<g>
						<path class="st2" d="M409.9,594.02c-11.7,41.46-44.21,75.28-87.33,87.4l10.71,37.93c56.57-15.9,99.25-60.28,114.57-114.66
							L409.9,594.02z"/>
					</g>
					<g>
						<path class="st4" d="M413.06,540.05c2.95,18.63,1.63,36.93-3.17,53.97l37.95,10.67c6.3-22.34,7.99-46.36,4.13-70.8
							c-3.1-19.57-9.51-37.8-18.56-54.2l-34.51,19.03C405.82,511.24,410.7,525.13,413.06,540.05z"/>
					</g>
					<g>
						<path class="st5" d="M307.95,684.65c-67.62,10.69-131.15-34.37-143.87-101.16l-38.72,7.4
							c16.68,87.59,100.05,146.69,188.75,132.67c6.55-1.04,12.94-2.45,19.16-4.21l-10.71-37.93
							C317.81,682.76,312.95,683.86,307.95,684.65z"/>
					</g>
					<g>
						<path class="st6" d="M365.48,459.81l24.11-31.19c-19.13-14.78-41.44-25.39-65.45-30.72l-8.54,38.5
							C333.9,440.46,350.9,448.54,365.48,459.81z"/>
					</g>
				</g>
				<g>
					<polygon class="st5" points="143.81,456.47 122.58,456.88 96.35,427.05 119.39,429.52 					"/>
				</g>
				<g>
					<polygon class="st5" points="146.62,454.4 149.47,433.35 122.84,403.88 122.66,427.05 					"/>
				</g>
				<g>
					
						<rect x="167.97" y="409.23" transform="matrix(0.7422 -0.6702 0.6702 0.7422 -279.5735 238.4055)" class="st4" width="4.22" height="146.7"/>
				</g>
			</g>
			<g>
				<g>
					
						<linearGradient id="SVGID_1_" gradientUnits="userSpaceOnUse" x1="551.5364" y1="675.3615" x2="434.4359" y2="887.5272" gradientTransform="matrix(0.7909 0.6119 -0.6119 0.7909 917.8191 -431.1953)">
						<stop  offset="3.597120e-03" style="stop-color:#FFFFFF"/>
						<stop  offset="1" style="stop-color:#F4F7FA"/>
					</linearGradient>
					<polygon class="st7" points="576.59,635.65 544.41,487.23 947.29,399.87 979.47,548.28 					"/>
					
						<linearGradient id="SVGID_2_" gradientUnits="userSpaceOnUse" x1="4751.4487" y1="-499.5502" x2="4804.0527" y2="-217.1485" gradientTransform="matrix(0.2119 0.9773 -0.9773 0.2119 -525.9736 -4079.0359)">
						<stop  offset="3.597120e-03" style="stop-color:#E38DDD"/>
						<stop  offset="1" style="stop-color:#9571F6"/>
					</linearGradient>
					<polygon class="st8" points="889.63,546.15 865.35,434.2 933.13,419.51 957.41,531.45 					"/>
					
						<linearGradient id="SVGID_3_" gradientUnits="userSpaceOnUse" x1="4736.8403" y1="-496.824" x2="4789.4443" y2="-214.4222" gradientTransform="matrix(0.2119 0.9773 -0.9773 0.2119 -525.9736 -4079.0359)">
						<stop  offset="3.597120e-03" style="stop-color:#E38DDD"/>
						<stop  offset="1" style="stop-color:#9571F6"/>
					</linearGradient>
					<polygon class="st9" points="810.3,563.35 786.02,451.41 853.8,436.71 878.08,548.65 					"/>
					
						<linearGradient id="SVGID_4_" gradientUnits="userSpaceOnUse" x1="4722.2319" y1="-494.0972" x2="4774.8359" y2="-211.6955" gradientTransform="matrix(0.2119 0.9773 -0.9773 0.2119 -525.9736 -4079.0359)">
						<stop  offset="3.597120e-03" style="stop-color:#E38DDD"/>
						<stop  offset="1" style="stop-color:#9571F6"/>
					</linearGradient>
					<polygon class="st10" points="730.97,580.55 706.69,468.61 774.47,453.91 798.75,565.85 					"/>
					
						<linearGradient id="SVGID_5_" gradientUnits="userSpaceOnUse" x1="4697.9849" y1="-543.1157" x2="4750.5889" y2="-260.7139" gradientTransform="matrix(0.2119 0.9773 -0.9773 0.2119 -525.9736 -4079.0359)">
						<stop  offset="3.597120e-03" style="stop-color:#E38DDD"/>
						<stop  offset="1" style="stop-color:#9571F6"/>
					</linearGradient>
					<polygon class="st11" points="651.64,597.76 627.37,485.81 695.15,471.11 719.42,583.06 					"/>
					<g class="st12">
						
							<linearGradient id="SVGID_6_" gradientUnits="userSpaceOnUse" x1="576.5273" y1="689.1546" x2="459.4269" y2="901.3201" gradientTransform="matrix(0.7909 0.6119 -0.6119 0.7909 917.8191 -431.1953)">
							<stop  offset="3.597120e-03" style="stop-color:#E38DDD"/>
							<stop  offset="1" style="stop-color:#9571F6"/>
						</linearGradient>
						<path class="st13" d="M979.47,548.28l-21.2-97.75c-17.62,20.4-34.73,29.13-48.29,33.18c-38.08,11.39-59.37-10.67-108.92-4.28
							c-46.46,5.99-66.9,30.44-98.93,47.63c-30.48,16.36-75.95,28.56-145.39,17.03l19.85,91.55L979.47,548.28z"/>
					</g>
				</g>
				<g>
					
						<linearGradient id="SVGID_7_" gradientUnits="userSpaceOnUse" x1="606.3881" y1="391.3909" x2="489.2876" y2="603.5566" gradientTransform="matrix(0.9908 0.1353 -0.1353 0.9908 303.9472 -174.5055)">
						<stop  offset="3.597120e-03" style="stop-color:#FFFFFF"/>
						<stop  offset="1" style="stop-color:#F4F7FA"/>
					</linearGradient>
					<polygon class="st14" points="633.73,646.27 531.74,533.75 837.19,256.9 939.17,369.42 					"/>
					
						<linearGradient id="SVGID_8_" gradientUnits="userSpaceOnUse" x1="4610.7617" y1="-752.2497" x2="4663.3662" y2="-469.848" gradientTransform="matrix(0.6715 0.741 -0.741 0.6715 -2768.3345 -2614.2522)">
						<stop  offset="3.597120e-03" style="stop-color:#E38DDD"/>
						<stop  offset="1" style="stop-color:#9571F6"/>
					</linearGradient>
					<polygon class="st15" points="860.26,412.44 783.34,327.57 834.73,280.99 911.65,365.86 					"/>
					
						<linearGradient id="SVGID_9_" gradientUnits="userSpaceOnUse" x1="4596.1533" y1="-749.5234" x2="4648.7578" y2="-467.1217" gradientTransform="matrix(0.6715 0.741 -0.741 0.6715 -2768.3345 -2614.2522)">
						<stop  offset="3.597120e-03" style="stop-color:#E38DDD"/>
						<stop  offset="1" style="stop-color:#9571F6"/>
					</linearGradient>
					<polygon class="st16" points="800.12,466.95 723.19,382.08 774.58,335.5 851.51,420.37 					"/>
					
						<linearGradient id="SVGID_10_" gradientUnits="userSpaceOnUse" x1="4581.5449" y1="-746.7967" x2="4634.1494" y2="-464.395" gradientTransform="matrix(0.6715 0.741 -0.741 0.6715 -2768.3345 -2614.2522)">
						<stop  offset="3.597120e-03" style="stop-color:#E38DDD"/>
						<stop  offset="1" style="stop-color:#9571F6"/>
					</linearGradient>
					<polygon class="st17" points="739.98,521.46 663.05,436.59 714.44,390.01 791.36,474.88 					"/>
					
						<linearGradient id="SVGID_11_" gradientUnits="userSpaceOnUse" x1="4557.2979" y1="-795.8152" x2="4609.9023" y2="-513.4134" gradientTransform="matrix(0.6715 0.741 -0.741 0.6715 -2768.3345 -2614.2522)">
						<stop  offset="3.597120e-03" style="stop-color:#E38DDD"/>
						<stop  offset="1" style="stop-color:#9571F6"/>
					</linearGradient>
					<polygon class="st18" points="679.83,575.97 602.91,491.1 654.3,444.53 731.22,529.4 					"/>
					<g class="st12">
						
							<linearGradient id="SVGID_12_" gradientUnits="userSpaceOnUse" x1="631.379" y1="405.1841" x2="514.2786" y2="617.3495" gradientTransform="matrix(0.9908 0.1353 -0.1353 0.9908 303.9472 -174.5055)">
							<stop  offset="3.597120e-03" style="stop-color:#E38DDD"/>
							<stop  offset="1" style="stop-color:#9571F6"/>
						</linearGradient>
						<path class="st19" d="M939.17,369.42L872,295.32c-5.08,26.47-15.55,42.58-25.27,52.86c-27.31,28.89-56.77,20.4-96.51,50.68
							c-37.27,28.39-42.77,59.77-61.94,90.66c-18.24,29.39-51.55,62.67-117.47,87.35l62.91,69.41L939.17,369.42z"/>
					</g>
				</g>
				<g>
					
						<linearGradient id="SVGID_13_" gradientUnits="userSpaceOnUse" x1="585.0455" y1="1170.3148" x2="467.945" y2="1382.4805" gradientTransform="matrix(0.3899 0.9209 -0.9209 0.3899 1805.671 -367.3134)">
						<stop  offset="3.597120e-03" style="stop-color:#FFFFFF"/>
						<stop  offset="1" style="stop-color:#F4F7FA"/>
					</linearGradient>
					<polygon class="st20" points="542.98,619.57 587.61,474.41 981.65,595.54 937.03,740.7 					"/>
					
						<linearGradient id="SVGID_14_" gradientUnits="userSpaceOnUse" x1="5095.5142" y1="-142.1626" x2="5148.1187" y2="140.2391" gradientTransform="matrix(-0.2939 0.9558 -0.9558 -0.2939 2333.3372 -4254.8379)">
						<stop  offset="3.597120e-03" style="stop-color:#E38DDD"/>
						<stop  offset="1" style="stop-color:#9571F6"/>
					</linearGradient>
					<polygon class="st21" points="859.74,694.84 893.39,585.35 959.69,605.73 926.03,715.22 					"/>
					
						<linearGradient id="SVGID_15_" gradientUnits="userSpaceOnUse" x1="5080.9058" y1="-139.4364" x2="5133.5103" y2="142.9654" gradientTransform="matrix(-0.2939 0.9558 -0.9558 -0.2939 2333.3372 -4254.8379)">
						<stop  offset="3.597120e-03" style="stop-color:#E38DDD"/>
						<stop  offset="1" style="stop-color:#9571F6"/>
					</linearGradient>
					<polygon class="st22" points="782.15,670.99 815.81,561.5 882.1,581.88 848.44,691.37 					"/>
					
						<linearGradient id="SVGID_16_" gradientUnits="userSpaceOnUse" x1="5066.2974" y1="-136.7096" x2="5118.9019" y2="145.6921" gradientTransform="matrix(-0.2939 0.9558 -0.9558 -0.2939 2333.3372 -4254.8379)">
						<stop  offset="3.597120e-03" style="stop-color:#E38DDD"/>
						<stop  offset="1" style="stop-color:#9571F6"/>
					</linearGradient>
					<polygon class="st23" points="704.56,647.14 738.22,537.65 804.51,558.03 770.85,667.51 					"/>
					
						<linearGradient id="SVGID_17_" gradientUnits="userSpaceOnUse" x1="5042.0503" y1="-185.7281" x2="5094.6543" y2="96.6737" gradientTransform="matrix(-0.2939 0.9558 -0.9558 -0.2939 2333.3372 -4254.8379)">
						<stop  offset="3.597120e-03" style="stop-color:#E38DDD"/>
						<stop  offset="1" style="stop-color:#9571F6"/>
					</linearGradient>
					<polygon class="st24" points="626.97,623.28 660.63,513.8 726.92,534.17 693.27,643.66 					"/>
					<g class="st12">
						
							<linearGradient id="SVGID_18_" gradientUnits="userSpaceOnUse" x1="610.0364" y1="1184.1079" x2="492.936" y2="1396.2734" gradientTransform="matrix(0.3899 0.9209 -0.9209 0.3899 1805.671 -367.3134)">
							<stop  offset="3.597120e-03" style="stop-color:#E38DDD"/>
							<stop  offset="1" style="stop-color:#9571F6"/>
						</linearGradient>
						<path class="st25" d="M937.03,740.7l29.39-95.6c-25.35,9.16-44.55,8.39-58.35,5.28c-38.78-8.72-46.54-38.37-92.87-57.07
							c-43.44-17.53-73.23-6.23-109.58-6.93c-34.58-0.67-80.21-12.29-135.1-56.35l-27.53,89.54L937.03,740.7z"/>
					</g>
				</g>
				
					<linearGradient id="SVGID_19_" gradientUnits="userSpaceOnUse" x1="1465.8943" y1="1007.6925" x2="1498.1927" y2="1007.6925" gradientTransform="matrix(0.6571 0.7538 -0.7538 0.6571 381.8415 -1226.4751)">
					<stop  offset="3.597120e-03" style="stop-color:#E38DDD"/>
					<stop  offset="1" style="stop-color:#9571F6"/>
				</linearGradient>
				<circle class="st26" cx="596.11" cy="552.88" r="16.15"/>
			</g>
			<g>
				<g>
					<path d="M792.09,425.93L792.09,425.93C776.84,361.5,725.3,311.75,670.84,273.5l-8-4c47.25-47.78,107.34-41.94,145.88-10.54
						C851.58,293.87,864.36,361.56,792.09,425.93z"/>
				</g>
				<g class="st27">
					<path class="st28" d="M824.2,282.71c-36.93-38.82-90.71-51.13-137.61-3.46l-25.11-8.87
						C712.97,217.89,790.74,235.13,824.2,282.71z"/>
				</g>
				<g class="st29">
					<path class="st30" d="M789.09,429.93l-69.97-82.41c10.49-12.4,21.51-24.02,21.51-24.02c64.58,60.24,83.58-14.73,65.1-60.54
						C848.58,297.87,861.36,365.56,789.09,429.93z"/>
				</g>
				<g>
					<path d="M793.07,433.21c-1.52,0,1.96-4.84,0.87-6.07c-2.03-2.28-7.48-8.37-5.2-10.4c39.01-34.75,52.59-64.86,44.26-101.21
						c-7.26-31.71-32.97-57.44-67.09-67.15c-37.35-10.64-71.75-3.39-101.08,26.26c-2.14,2.17,4.72-14.98-3.47-6.93
						c-2.18,2.14-5.61,0.44-3.47-1.73c32.25-32.61,69.69-39.99,111.03-28.22c37.99,10.82,66.67,39.67,74.83,75.31
						c9.27,40.46-8.85,83.42-51.01,120.97C791.71,434.98,794.38,433.21,793.07,433.21z"/>
				</g>
				<g>
					<path d="M419.01,275.37c1.87,1.73,2.15,4.58,0.67,6.64l-76.84,68.49l-32.93,83.88v0c-1.63,2.26-4.79,2.77-7.04,1.13
						c-105.37-76.84-39.53-200.24,48.72-192.59C373.44,244.8,396.66,254.72,419.01,275.37z"/>
				</g>
				<g class="st27">
					<path class="st28" d="M310.15,434.05l-3.16,4.39c-124.32-85.64-26.62-233.91,77-186.83
						C291.26,227.55,213.05,352.32,310.15,434.05z"/>
				</g>
				<g class="st29">
					<path class="st30" d="M422.26,278.44L309.91,434.38c-0.46-0.73-0.9-1.45-1.33-2.18c-26.56-45.7,5.67-123.17,34.86-146.84
						c24.51-19.87,12.59-37.34,8.14-42.44C374.5,244.89,398.91,255.7,422.26,278.44z"/>
				</g>
				<g>
					<path class="st28" d="M805.42,498.63c2.67,144.6-109.61,202.21-249.37,204.79c-139.77,2.58-254.1-50.85-256.77-195.45
						c-0.59-32.77,4.64-64.25,14.73-93.36c8.31-23.97,19.91-46.34,34.24-66.5c45.09-63.43,117.25-105.13,199.26-106.65
						c80.19-1.48,152.38,35.79,199.87,95.14c15.02,18.77,27.55,39.73,37.09,62.4C797.36,429.58,804.77,463.22,805.42,498.63z"/>
					<path class="st28" d="M546.63,704.42c-70.13,0-129.06-14.72-170.89-42.77c-50.08-33.59-76.12-85.29-77.38-153.66
						c-0.58-32.19,4.39-63.71,14.78-93.68c8.25-23.81,19.81-46.26,34.36-66.73c47.31-66.55,120.2-105.56,199.99-107.03
						c77.8-1.45,150.9,33.36,200.6,95.48c15.21,19.01,27.73,40.07,37.22,62.61c13.31,31.59,20.39,65.22,21.03,99.97
						c1.26,68.38-22.84,121-71.65,156.41c-42.57,30.89-104.34,47.94-178.62,49.31C552.9,704.39,549.75,704.42,546.63,704.42z
						 M552.13,242.33c-1.54,0-3.06,0.01-4.6,0.04c-79.2,1.47-151.56,40.2-198.53,106.27c-14.45,20.32-25.92,42.62-34.12,66.27
						c-10.32,29.76-15.26,61.07-14.68,93.04c1.25,67.74,27.01,118.94,76.57,152.18c43.37,29.09,105.39,43.74,179.27,42.37
						c73.91-1.37,135.32-18.3,177.58-48.96c48.29-35.04,72.15-87.15,70.89-154.89c-0.64-34.52-7.66-67.92-20.88-99.3
						c-9.43-22.38-21.86-43.3-36.96-62.18C698.3,276.73,627.61,242.33,552.13,242.33z"/>
				</g>
				<g class="st31">
					<g class="st32">
						<path class="st28" d="M555.55,697.62c139.77-2.59,252.04-60.19,249.37-204.79c-0.65-35.4-8.06-69.04-20.96-99.63
							c-9.26-22.03-21.4-42.44-35.85-60.8c-14.78-16.8-31.62-31.61-50.12-43.97c12.1,16.46,22.35,34.45,30.44,53.67
							c12.88,30.58,20.29,64.23,20.94,99.64c2.68,144.6-109.6,202.2-249.37,204.79c-63.44,1.17-121.64-9.2-166.54-34.4
							c3.27,5.54,6.85,10.79,10.67,15.81C390.55,678.88,468.05,699.24,555.55,697.62z"/>
					</g>
				</g>
				<g>
					<path class="st33" d="M544.91,711.63c-71.06,0-130.88-14.99-173.47-43.55c-51.41-34.47-78.13-87.43-79.42-157.41
						c-2.58-139.6,99.32-256.47,231.21-270.72c7.39-0.8,14.88-1.27,22.44-1.41c142.57-2.64,260.81,115.16,263.53,262.58l0,0
						c1.29,69.97-23.45,123.88-73.55,160.23c-43.34,31.45-106.01,48.8-181.24,50.19C551.23,711.6,548.05,711.63,544.91,711.63z
						 M552.1,246.94c-1.49,0-2.98,0.01-4.48,0.04c-136.5,2.52-245.42,119.55-242.81,260.88c1.22,66.15,26.3,116.09,74.53,148.44
						c42.58,28.56,103.68,42.96,176.62,41.59c72.96-1.35,133.46-17.98,174.96-48.09c47-34.1,70.22-84.94,69-151.09l0,0
						C797.31,358.94,686.58,246.94,552.1,246.94z"/>
				</g>
				<g>
					<path d="M306.99,443.96c-1.08,0-2.17-0.32-3.13-0.98c-43.92-30.25-65.7-72.47-59.76-115.84c5.35-39.07,32.35-72.41,68.78-84.93
						c37.65-12.94,78.92-1.18,113.23,32.27c2.18,2.13,2.23,5.63,0.1,7.81c-2.13,2.18-5.63,2.23-7.81,0.1
						c-31.68-30.87-67.87-41.43-101.93-29.73c-32.53,11.18-56.64,41.01-61.43,75.99c-5.35,39.08,14.73,77.44,55.08,105.24
						c2.51,1.73,3.15,5.17,1.42,7.68C310.47,443.13,308.75,443.96,306.99,443.96z"/>
				</g>
				<g>
					<g>
						<path d="M504.38,425.19c-25.1,21.38-39.2,53.25-45,93.04c-1.63,11.15-10.09,20.04-21.09,22.47
							c-55.36,12.26-99.36-47.05-73.32-114.85c34.31-87.75,126.25-79.81,146.66-31.44C516.14,405.11,513.22,417.66,504.38,425.19z"
							/>
					</g>
				</g>
				<g>
					<g>
						<path d="M589.64,422.84c26.24,19.96,42.07,51.02,50.05,90.43c2.24,11.04,11.18,19.45,22.3,21.28
							c55.95,9.19,96.62-52.45,66.89-118.71c-39.08-85.73-130.45-72.75-148.16-23.33C576.79,403.44,580.4,415.81,589.64,422.84z"/>
					</g>
				</g>
				<g>
					<path d="M582.91,493.45c0.28,14.95-14.2,35.5-32.53,35.84s-33.55-19.66-33.83-34.61c-0.28-14.95,14.5-19.23,32.83-19.57
						C567.7,474.77,582.63,478.49,582.91,493.45z"/>
				</g>
				<g>
					<path d="M519.01,553.35c-4.79,0-9.63-0.93-14.24-2.88c-11.78-4.98-19.78-15.68-22.54-30.13c-0.57-3,1.39-5.89,4.39-6.46
						c3-0.57,5.89,1.39,6.46,4.39c2.04,10.71,7.72,18.53,15.99,22.03c12.03,5.09,26.28,0.28,32.45-10.96
						c2.32-4.18,3.41-9.05,3.26-14.47c-0.06-2.02-0.3-4.16-0.71-6.38c-0.57-3,1.41-5.89,4.4-6.45c3-0.57,5.89,1.41,6.45,4.4
						c0.53,2.79,0.83,5.52,0.9,8.13c0.2,7.42-1.36,14.19-4.63,20.11C544.71,546.47,532.05,553.35,519.01,553.35z"/>
				</g>
				<g>
					<path d="M599.16,545.45c0,0-0.03,29.01-10.82,38.97c-19.19-26.48-54.49-25.51-72.2,1.99l-10.29-23.33l-0.41-15.05l1.47-3.25
						c14.14,7.01,31.73,0.92,39.38-15.39c2.98-0.06,5.96-0.14,8.85-0.22c8.69,16.12,27.05,21.12,40.85,12.76
						C597.86,544,599.16,545.45,599.16,545.45z"/>
				</g>
				<g>
					<path class="st5" d="M586.39,581.39c-17.65,20.84-49.71,21.72-68.48,1.88c5.47-13.24,18.37-22.74,33.62-23.16
						C566.8,559.69,580.19,568.46,586.39,581.39z"/>
				</g>
				<g>
					<path d="M581.78,551.57c-12.35,0-24.53-6.09-31.26-16.87c-3.6-5.69-5.54-12.37-5.74-19.83c-0.07-2.59,0.08-5.34,0.45-8.16
						c0.4-3.03,3.17-5.15,6.2-4.76c3.03,0.4,5.15,3.17,4.75,6.2c-0.29,2.25-0.42,4.4-0.36,6.41c0.15,5.44,1.51,10.24,4.05,14.25
						c6.87,11.01,21.92,14.98,33.56,8.88c5.48-2.87,12.38-9.12,14.19-22.58c0.41-3.02,3.18-5.13,6.21-4.74
						c3.02,0.41,5.15,3.19,4.74,6.21c-1.9,14.16-9.01,25.13-20.01,30.9C593.29,550.25,587.51,551.57,581.78,551.57z"/>
				</g>
				<g>
					<path d="M551.3,603.12c-14.14,0-27.7-5.8-37.4-16.05c-10.22-10.73-15.88-25.78-16.37-43.53l11.04-0.3
						c0.41,14.97,5.02,27.5,13.34,36.23c7.88,8.33,19.04,12.89,30.51,12.6c11.51-0.32,22.36-5.51,29.76-14.24
						c7.83-9.19,11.75-21.95,11.34-36.92l11.04-0.3c0.49,17.75-4.34,33.09-13.96,44.38c-9.41,11.11-23.22,17.73-37.87,18.13
						C552.25,603.11,551.77,603.12,551.3,603.12z"/>
				</g>
				<g>
					<path class="st28" d="M473.36,472.34L473.36,472.34c-3.17,0-5.74-2.57-5.74-5.74c0-10.74-4.3-19.13-12.11-23.64
						c-7.61-4.4-17.46-4.4-25.07,0c-7.81,4.51-12.11,12.9-12.11,23.64c0,3.17-2.57,5.74-5.74,5.74c-3.17,0-5.74-2.57-5.74-5.74
						c0-14.79,6.51-27.03,17.85-33.58c11.1-6.41,25.45-6.41,36.55,0c11.34,6.55,17.85,18.79,17.85,33.58
						C479.1,469.77,476.53,472.34,473.36,472.34z"/>
				</g>
				<g>
					<path class="st28" d="M688.22,472.75c-3.17,0-5.74-2.57-5.74-5.74c0-19.17-12.76-27.75-25.41-27.75
						c-12.65,0-25.41,8.58-25.41,27.75c0,3.17-2.57,5.74-5.74,5.74c-3.17,0-5.74-2.57-5.74-5.74c0-25.76,18.56-39.23,36.89-39.23
						c18.33,0,36.89,13.48,36.89,39.23C693.95,470.18,691.38,472.75,688.22,472.75z"/>
				</g>
			</g>
		</g>
		<g>
			<text transform="matrix(1 0 0 1 678.5596 887.6797)" class="st28 st34 st35">Já</text>
			<text transform="matrix(1 0 0 1 250.5596 846.6797)" class="st28 st34 st35">Freela</text>
		</g>
	</g>
</g>
<g id="branco">
</g>
<g id="verde">
</g>
<g id="preto">
</g>
</svg>
