<?xml version="1.0" encoding="utf-8"?>
<!-- Generator: Adobe Illustrator 25.0.0, SVG Export Plug-In . SVG Version: 6.00 Build 0)  -->
<svg version="1.1" xmlns="http://www.w3.org/2000/svg" xmlns:xlink="http://www.w3.org/1999/xlink" x="0px" y="0px"
	 viewBox="0 0 1080 1080" style="enable-background:new 0 0 1080 1080;" xml:space="preserve">
<style type="text/css">
	.st0{display:none;fill:#6B1A8E;}
	.st1{fill:#F2F2F2;}
	.st2{fill:#CDCCCA;}
	.st3{fill:#6B1A8E;}
	.st4{fill:#353F49;}
	.st5{fill:#12B0B6;}
	.st6{fill:#92E0EA;}
	.st7{fill:url(#SVGID_1_);stroke:#000000;stroke-width:4;stroke-miterlimit:10;}
	.st8{fill:url(#SVGID_2_);}
	.st9{fill:url(#SVGID_3_);}
	.st10{fill:url(#SVGID_4_);}
	.st11{fill:url(#SVGID_5_);}
	.st12{opacity:0.3;}
	.st13{fill:url(#SVGID_6_);}
	.st14{fill:url(#SVGID_7_);stroke:#000000;stroke-width:4;stroke-miterlimit:10;}
	.st15{fill:url(#SVGID_8_);}
	.st16{fill:url(#SVGID_9_);}
	.st17{fill:url(#SVGID_10_);}
	.st18{fill:url(#SVGID_11_);}
	.st19{fill:url(#SVGID_12_);}
	.st20{fill:url(#SVGID_13_);stroke:#000000;stroke-width:4;stroke-miterlimit:10;}
	.st21{fill:url(#SVGID_14_);}
	.st22{fill:url(#SVGID_15_);}
	.st23{fill:url(#SVGID_16_);}
	.st24{fill:url(#SVGID_17_);}
	.st25{fill:url(#SVGID_18_);}
	.st26{fill:url(#SVGID_19_);}
	.st27{opacity:0.55;}
	.st28{fill:#FFFFFF;}
	.st29{display:none;opacity:0.3;}
	.st30{display:inline;fill:#000072;}
	.st31{display:none;}
	.st32{display:inline;opacity:0.3;}
	.st33{fill:#020202;}
	.st34{display:none;fill:#FFFFFF;}
	.st35{fill:url(#SVGID_20_);stroke:#000000;stroke-width:4;stroke-miterlimit:10;}
	.st36{fill:url(#SVGID_21_);}
	.st37{fill:url(#SVGID_22_);}
	.st38{fill:url(#SVGID_23_);}
	.st39{fill:url(#SVGID_24_);}
	.st40{fill:url(#SVGID_25_);}
	.st41{fill:url(#SVGID_26_);stroke:#000000;stroke-width:4;stroke-miterlimit:10;}
	.st42{fill:url(#SVGID_27_);}
	.st43{fill:url(#SVGID_28_);}
	.st44{fill:url(#SVGID_29_);}
	.st45{fill:url(#SVGID_30_);}
	.st46{fill:url(#SVGID_31_);}
	.st47{fill:url(#SVGID_32_);stroke:#000000;stroke-width:4;stroke-miterlimit:10;}
	.st48{fill:url(#SVGID_33_);}
	.st49{fill:url(#SVGID_34_);}
	.st50{fill:url(#SVGID_35_);}
	.st51{fill:url(#SVGID_36_);}
	.st52{fill:url(#SVGID_37_);}
	.st53{fill:url(#SVGID_38_);}
	.st54{font-family:'Baloo2-ExtraBold';}
	.st55{font-size:158.3511px;}
	.st56{display:none;fill:#12B0B6;}
	.st57{fill:url(#SVGID_39_);stroke:#000000;stroke-width:4;stroke-miterlimit:10;}
	.st58{fill:url(#SVGID_40_);}
	.st59{fill:url(#SVGID_41_);}
	.st60{fill:url(#SVGID_42_);}
	.st61{fill:url(#SVGID_43_);}
	.st62{fill:url(#SVGID_44_);}
	.st63{fill:url(#SVGID_45_);stroke:#000000;stroke-width:4;stroke-miterlimit:10;}
	.st64{fill:url(#SVGID_46_);}
	.st65{fill:url(#SVGID_47_);}
	.st66{fill:url(#SVGID_48_);}
	.st67{fill:url(#SVGID_49_);}
	.st68{fill:url(#SVGID_50_);}
	.st69{fill:url(#SVGID_51_);stroke:#000000;stroke-width:4;stroke-miterlimit:10;}
	.st70{fill:url(#SVGID_52_);}
	.st71{fill:url(#SVGID_53_);}
	.st72{fill:url(#SVGID_54_);}
	.st73{fill:url(#SVGID_55_);}
	.st74{fill:url(#SVGID_56_);}
	.st75{fill:url(#SVGID_57_);}
	.st76{fill:url(#SVGID_58_);stroke:url(#SVGID_59_);stroke-width:4;stroke-miterlimit:10;}
	.st77{fill:url(#SVGID_60_);}
	.st78{fill:url(#SVGID_61_);}
	.st79{fill:url(#SVGID_62_);}
	.st80{fill:url(#SVGID_63_);}
	.st81{fill:url(#SVGID_64_);}
	.st82{fill:url(#SVGID_65_);stroke:url(#SVGID_66_);stroke-width:4;stroke-miterlimit:10;}
	.st83{fill:url(#SVGID_67_);}
	.st84{fill:url(#SVGID_68_);}
	.st85{fill:url(#SVGID_69_);}
	.st86{fill:url(#SVGID_70_);}
	.st87{fill:url(#SVGID_71_);}
	.st88{fill:url(#SVGID_72_);stroke:url(#SVGID_73_);stroke-width:4;stroke-miterlimit:10;}
	.st89{fill:url(#SVGID_74_);}
	.st90{fill:url(#SVGID_75_);}
	.st91{fill:url(#SVGID_76_);}
	.st92{fill:url(#SVGID_77_);}
	.st93{fill:url(#SVGID_78_);}
	.st94{fill:url(#SVGID_79_);}
	.st95{opacity:0.11;}
	.st96{fill:#333333;}
</style>
<g id="roxo">
</g>
<g id="branco">
	<g>
		<rect x="0.25" y="3.5" class="st34" width="1080" height="1080"/>
		<g>
			<g>
				<g>
					<g>
						<path class="st1" d="M116.44,575.7c14.3,90.45,99.22,152.17,189.66,137.87c90.45-14.3,152.17-99.22,137.87-189.67
							c-14.3-90.44-99.22-152.17-189.67-137.86C163.86,400.34,102.14,485.25,116.44,575.7z M405.06,530.05
							c10.91,68.96-36.15,133.7-105.11,144.6C231,685.56,166.26,638.5,155.36,569.54c-10.91-68.96,36.15-133.7,105.11-144.6
							C329.42,414.04,394.16,461.09,405.06,530.05z"/>
					</g>
				</g>
				<g>
					<path class="st2" d="M265.7,458.04c50.68-8.01,98.25,26.57,106.27,77.24c8.01,50.67-26.57,98.25-77.24,106.27
						c-50.67,8.01-98.25-26.57-106.26-77.24C180.44,513.63,215.02,466.06,265.7,458.04z"/>
				</g>
				<g>
					<path class="st28" d="M270.2,486.5c34.96-5.53,67.78,18.33,73.31,53.29c5.53,34.96-18.32,67.78-53.29,73.31
						c-34.96,5.53-67.78-18.33-73.31-53.29C211.38,524.85,235.24,492.03,270.2,486.5z"/>
				</g>
				<g>
					<g>
						<polygon class="st4" points="295.12,549.82 257.58,647.62 241.88,641.59 275.95,552.83 189.91,446.03 203.01,435.48 						"/>
					</g>
				</g>
				<g>
					<path class="st5" d="M275.25,518.44c17.33-2.74,33.58,9.08,36.32,26.4c2.74,17.32-9.08,33.58-26.4,36.32
						c-17.32,2.74-33.58-9.08-36.32-26.4C246.11,537.44,257.93,521.18,275.25,518.44z"/>
				</g>
				<g>
					<g>
						<path class="st2" d="M155.36,569.54c-10.91-68.96,36.15-133.7,105.11-144.6c16.16-2.56,32.08-1.89,47.14,1.45l8.54-38.5
							c-19.75-4.39-40.64-5.22-61.84-1.86c-90.44,14.3-152.17,99.22-137.86,189.66c0.28,1.75,0.59,3.48,0.92,5.2l38.72-7.4
							C155.83,572.19,155.57,570.88,155.36,569.54z"/>
					</g>
					<g>
						<path class="st5" d="M401.9,584.02c-11.7,41.46-44.21,75.28-87.33,87.4l10.71,37.93c56.57-15.9,99.25-60.28,114.57-114.66
							L401.9,584.02z"/>
					</g>
					<g>
						<path class="st4" d="M405.06,530.05c2.95,18.63,1.63,36.93-3.17,53.97l37.95,10.67c6.3-22.34,7.99-46.36,4.13-70.8
							c-3.1-19.57-9.51-37.8-18.56-54.2l-34.51,19.03C397.82,501.24,402.7,515.13,405.06,530.05z"/>
					</g>
					<g>
						<path class="st3" d="M299.95,674.65c-67.62,10.69-131.15-34.37-143.87-101.16l-38.72,7.4
							c16.68,87.59,100.05,146.69,188.75,132.67c6.55-1.04,12.94-2.45,19.16-4.21l-10.71-37.93
							C309.81,672.76,304.95,673.86,299.95,674.65z"/>
					</g>
					<g>
						<path class="st6" d="M357.48,449.81l24.11-31.19c-19.13-14.78-41.44-25.39-65.45-30.72l-8.54,38.5
							C325.9,430.46,342.9,438.54,357.48,449.81z"/>
					</g>
				</g>
				<g>
					<polygon class="st5" points="135.81,446.47 114.58,446.88 88.35,417.05 111.39,419.52 					"/>
				</g>
				<g>
					<polygon class="st5" points="138.62,444.4 141.47,423.35 114.84,393.88 114.66,417.05 					"/>
				</g>
				<g>
					
						<rect x="159.97" y="399.23" transform="matrix(0.7422 -0.6702 0.6702 0.7422 -274.9341 230.4657)" class="st4" width="4.22" height="146.7"/>
				</g>
			</g>
			<g>
				<g>
					
						<linearGradient id="SVGID_1_" gradientUnits="userSpaceOnUse" x1="321.7552" y1="-10.5562" x2="204.6548" y2="201.6094" gradientTransform="matrix(0.7909 0.6119 -0.6119 0.7909 687.8298 241.9179)">
						<stop  offset="3.597120e-03" style="stop-color:#FFFFFF"/>
						<stop  offset="1" style="stop-color:#F4F7FA"/>
					</linearGradient>
					<polygon class="st7" points="584.59,625.65 552.41,477.23 955.29,389.87 987.47,538.28 					"/>
					
						<linearGradient id="SVGID_2_" gradientUnits="userSpaceOnUse" x1="3876.4424" y1="-1584.5242" x2="3929.0466" y2="-1302.1226" gradientTransform="matrix(0.2119 0.9773 -0.9773 0.2119 -1392.9071 -3004.0225)">
						<stop  offset="3.597120e-03" style="stop-color:#E38DDD"/>
						<stop  offset="1" style="stop-color:#9571F6"/>
					</linearGradient>
					<polygon class="st8" points="897.63,536.15 873.35,424.2 941.13,409.51 965.41,521.45 					"/>
					
						<linearGradient id="SVGID_3_" gradientUnits="userSpaceOnUse" x1="3861.834" y1="-1581.798" x2="3914.438" y2="-1299.3962" gradientTransform="matrix(0.2119 0.9773 -0.9773 0.2119 -1392.9071 -3004.0225)">
						<stop  offset="3.597120e-03" style="stop-color:#E38DDD"/>
						<stop  offset="1" style="stop-color:#9571F6"/>
					</linearGradient>
					<polygon class="st9" points="818.3,553.35 794.02,441.41 861.8,426.71 886.08,538.65 					"/>
					
						<linearGradient id="SVGID_4_" gradientUnits="userSpaceOnUse" x1="3847.2256" y1="-1579.0713" x2="3899.8298" y2="-1296.6696" gradientTransform="matrix(0.2119 0.9773 -0.9773 0.2119 -1392.9071 -3004.0225)">
						<stop  offset="3.597120e-03" style="stop-color:#E38DDD"/>
						<stop  offset="1" style="stop-color:#9571F6"/>
					</linearGradient>
					<polygon class="st10" points="738.97,570.55 714.69,458.61 782.47,443.91 806.75,555.85 					"/>
					
						<linearGradient id="SVGID_5_" gradientUnits="userSpaceOnUse" x1="3822.9783" y1="-1628.0897" x2="3875.5825" y2="-1345.688" gradientTransform="matrix(0.2119 0.9773 -0.9773 0.2119 -1392.9071 -3004.0225)">
						<stop  offset="3.597120e-03" style="stop-color:#E38DDD"/>
						<stop  offset="1" style="stop-color:#9571F6"/>
					</linearGradient>
					<polygon class="st11" points="659.64,587.76 635.37,475.81 703.15,461.11 727.42,573.06 					"/>
					<g class="st12">
						
							<linearGradient id="SVGID_6_" gradientUnits="userSpaceOnUse" x1="346.7462" y1="3.2369" x2="229.6458" y2="215.4023" gradientTransform="matrix(0.7909 0.6119 -0.6119 0.7909 687.8298 241.9179)">
							<stop  offset="3.597120e-03" style="stop-color:#E38DDD"/>
							<stop  offset="1" style="stop-color:#9571F6"/>
						</linearGradient>
						<path class="st13" d="M987.47,538.28l-21.2-97.75c-17.62,20.4-34.73,29.13-48.29,33.18c-38.08,11.39-59.37-10.67-108.92-4.28
							c-46.46,5.99-66.9,30.44-98.93,47.63c-30.48,16.36-75.95,28.56-145.39,17.03l19.85,91.55L987.47,538.28z"/>
					</g>
				</g>
				<g>
					
						<linearGradient id="SVGID_7_" gradientUnits="userSpaceOnUse" x1="602.8479" y1="231.5789" x2="485.7474" y2="443.7445" gradientTransform="matrix(0.9908 0.1353 -0.1353 0.9908 293.8335 -25.6839)">
						<stop  offset="3.597120e-03" style="stop-color:#FFFFFF"/>
						<stop  offset="1" style="stop-color:#F4F7FA"/>
					</linearGradient>
					<polygon class="st14" points="641.73,636.27 539.74,523.75 845.19,246.9 947.17,359.42 					"/>
					
						<linearGradient id="SVGID_8_" gradientUnits="userSpaceOnUse" x1="4247.4204" y1="-1579.9724" x2="4300.0249" y2="-1297.5707" gradientTransform="matrix(0.6715 0.741 -0.741 0.6715 -3129.6543 -1799.1904)">
						<stop  offset="3.597120e-03" style="stop-color:#E38DDD"/>
						<stop  offset="1" style="stop-color:#9571F6"/>
					</linearGradient>
					<polygon class="st15" points="868.26,402.44 791.34,317.57 842.73,270.99 919.65,355.86 					"/>
					
						<linearGradient id="SVGID_9_" gradientUnits="userSpaceOnUse" x1="4232.812" y1="-1577.2461" x2="4285.416" y2="-1294.8444" gradientTransform="matrix(0.6715 0.741 -0.741 0.6715 -3129.6543 -1799.1904)">
						<stop  offset="3.597120e-03" style="stop-color:#E38DDD"/>
						<stop  offset="1" style="stop-color:#9571F6"/>
					</linearGradient>
					<polygon class="st16" points="808.12,456.95 731.19,372.08 782.58,325.5 859.51,410.37 					"/>
					
						<linearGradient id="SVGID_10_" gradientUnits="userSpaceOnUse" x1="4218.2036" y1="-1574.5194" x2="4270.8081" y2="-1292.1177" gradientTransform="matrix(0.6715 0.741 -0.741 0.6715 -3129.6543 -1799.1904)">
						<stop  offset="3.597120e-03" style="stop-color:#E38DDD"/>
						<stop  offset="1" style="stop-color:#9571F6"/>
					</linearGradient>
					<polygon class="st17" points="747.98,511.46 671.05,426.59 722.44,380.01 799.36,464.88 					"/>
					
						<linearGradient id="SVGID_11_" gradientUnits="userSpaceOnUse" x1="4193.9565" y1="-1623.5378" x2="4246.5605" y2="-1341.1361" gradientTransform="matrix(0.6715 0.741 -0.741 0.6715 -3129.6543 -1799.1904)">
						<stop  offset="3.597120e-03" style="stop-color:#E38DDD"/>
						<stop  offset="1" style="stop-color:#9571F6"/>
					</linearGradient>
					<polygon class="st18" points="687.83,565.97 610.91,481.1 662.3,434.53 739.22,519.4 					"/>
					<g class="st12">
						
							<linearGradient id="SVGID_12_" gradientUnits="userSpaceOnUse" x1="627.8388" y1="245.372" x2="510.7384" y2="457.5375" gradientTransform="matrix(0.9908 0.1353 -0.1353 0.9908 293.8335 -25.6839)">
							<stop  offset="3.597120e-03" style="stop-color:#E38DDD"/>
							<stop  offset="1" style="stop-color:#9571F6"/>
						</linearGradient>
						<path class="st19" d="M947.17,359.42L880,285.32c-5.08,26.47-15.55,42.58-25.27,52.86c-27.31,28.89-56.77,20.4-96.51,50.68
							c-37.27,28.39-42.77,59.77-61.94,90.66c-18.24,29.39-51.55,62.67-117.47,87.35l62.91,69.41L947.17,359.42z"/>
					</g>
				</g>
				<g>
					
						<linearGradient id="SVGID_13_" gradientUnits="userSpaceOnUse" x1="-92.1515" y1="146.107" x2="-209.252" y2="358.2726" gradientTransform="matrix(0.3899 0.9209 -0.9209 0.3899 1134.5634 645.6285)">
						<stop  offset="3.597120e-03" style="stop-color:#FFFFFF"/>
						<stop  offset="1" style="stop-color:#F4F7FA"/>
					</linearGradient>
					<polygon class="st20" points="550.98,609.57 595.61,464.41 989.65,585.54 945.03,730.7 					"/>
					
						<linearGradient id="SVGID_14_" gradientUnits="userSpaceOnUse" x1="3660.332" y1="-1198.3082" x2="3712.9363" y2="-915.9065" gradientTransform="matrix(-0.2939 0.9558 -0.9558 -0.2939 910.0715 -3203.4231)">
						<stop  offset="3.597120e-03" style="stop-color:#E38DDD"/>
						<stop  offset="1" style="stop-color:#9571F6"/>
					</linearGradient>
					<polygon class="st21" points="867.74,684.84 901.39,575.35 967.69,595.73 934.03,705.22 					"/>
					
						<linearGradient id="SVGID_15_" gradientUnits="userSpaceOnUse" x1="3645.7236" y1="-1195.582" x2="3698.3279" y2="-913.1802" gradientTransform="matrix(-0.2939 0.9558 -0.9558 -0.2939 910.0715 -3203.4231)">
						<stop  offset="3.597120e-03" style="stop-color:#E38DDD"/>
						<stop  offset="1" style="stop-color:#9571F6"/>
					</linearGradient>
					<polygon class="st22" points="790.15,660.99 823.81,551.5 890.1,571.88 856.44,681.37 					"/>
					
						<linearGradient id="SVGID_16_" gradientUnits="userSpaceOnUse" x1="3631.1152" y1="-1192.8552" x2="3683.7195" y2="-910.4536" gradientTransform="matrix(-0.2939 0.9558 -0.9558 -0.2939 910.0715 -3203.4231)">
						<stop  offset="3.597120e-03" style="stop-color:#E38DDD"/>
						<stop  offset="1" style="stop-color:#9571F6"/>
					</linearGradient>
					<polygon class="st23" points="712.56,637.14 746.22,527.65 812.51,548.03 778.85,657.51 					"/>
					
						<linearGradient id="SVGID_17_" gradientUnits="userSpaceOnUse" x1="3606.8682" y1="-1241.8737" x2="3659.4724" y2="-959.472" gradientTransform="matrix(-0.2939 0.9558 -0.9558 -0.2939 910.0715 -3203.4231)">
						<stop  offset="3.597120e-03" style="stop-color:#E38DDD"/>
						<stop  offset="1" style="stop-color:#9571F6"/>
					</linearGradient>
					<polygon class="st24" points="634.97,613.28 668.63,503.8 734.92,524.17 701.27,633.66 					"/>
					<g class="st12">
						
							<linearGradient id="SVGID_18_" gradientUnits="userSpaceOnUse" x1="-67.1606" y1="159.9001" x2="-184.261" y2="372.0656" gradientTransform="matrix(0.3899 0.9209 -0.9209 0.3899 1134.5634 645.6285)">
							<stop  offset="3.597120e-03" style="stop-color:#E38DDD"/>
							<stop  offset="1" style="stop-color:#9571F6"/>
						</linearGradient>
						<path class="st25" d="M945.03,730.7l29.39-95.6c-25.35,9.16-44.55,8.39-58.35,5.28c-38.78-8.72-46.54-38.37-92.87-57.07
							c-43.44-17.53-73.23-6.23-109.58-6.93c-34.58-0.67-80.21-12.29-135.1-56.35l-27.53,89.54L945.03,730.7z"/>
					</g>
				</g>
				
					<linearGradient id="SVGID_19_" gradientUnits="userSpaceOnUse" x1="1086.4165" y1="165.9279" x2="1118.7151" y2="165.9279" gradientTransform="matrix(0.6571 0.7538 -0.7538 0.6571 4.6708 -397.282)">
					<stop  offset="3.597120e-03" style="stop-color:#E38DDD"/>
					<stop  offset="1" style="stop-color:#9571F6"/>
				</linearGradient>
				<circle class="st26" cx="604.11" cy="542.88" r="16.15"/>
			</g>
			<g>
				<g>
					<path d="M800.09,415.93L800.09,415.93C784.84,351.5,733.3,301.75,678.84,263.5l-8-4c47.25-47.78,107.34-41.94,145.88-10.54
						C859.58,283.87,872.36,351.56,800.09,415.93z"/>
				</g>
				<g class="st27">
					<path class="st28" d="M832.2,272.71c-36.93-38.82-90.71-51.13-137.61-3.46l-25.11-8.87
						C720.97,207.89,798.74,225.13,832.2,272.71z"/>
				</g>
				<g class="st29">
					<path class="st30" d="M797.09,419.93l-69.97-82.41c10.49-12.4,21.51-24.02,21.51-24.02c64.58,60.24,83.58-14.73,65.1-60.54
						C856.58,287.87,869.36,355.56,797.09,419.93z"/>
				</g>
				<g>
					<path d="M801.07,423.21c-1.52,0,1.96-4.84,0.87-6.07c-2.03-2.28-7.48-8.37-5.2-10.4c39.01-34.75,52.59-64.86,44.26-101.21
						c-7.26-31.71-32.97-57.44-67.09-67.15c-37.35-10.64-71.75-3.39-101.08,26.26c-2.14,2.17,4.72-14.98-3.47-6.93
						c-2.18,2.14-5.61,0.44-3.47-1.73c32.25-32.61,69.69-39.99,111.03-28.22c37.99,10.82,66.67,39.67,74.83,75.31
						c9.27,40.46-8.85,83.42-51.01,120.97C799.71,424.98,802.38,423.21,801.07,423.21z"/>
				</g>
				<g>
					<path d="M427.01,265.37c1.87,1.73,2.15,4.58,0.67,6.64l-76.84,68.49l-32.93,83.88v0c-1.63,2.26-4.79,2.77-7.04,1.13
						c-105.37-76.84-39.53-200.24,48.72-192.59C381.44,234.8,404.66,244.72,427.01,265.37z"/>
				</g>
				<g class="st27">
					<path class="st28" d="M318.15,424.05l-3.16,4.39c-124.32-85.64-26.62-233.91,77-186.83
						C299.26,217.55,221.05,342.32,318.15,424.05z"/>
				</g>
				<g class="st29">
					<path class="st30" d="M430.26,268.44L317.91,424.38c-0.46-0.73-0.9-1.45-1.33-2.18c-26.56-45.7,5.67-123.17,34.86-146.84
						c24.51-19.87,12.59-37.34,8.14-42.44C382.5,234.89,406.91,245.7,430.26,268.44z"/>
				</g>
				<g>
					<path class="st28" d="M813.42,488.63c2.67,144.6-109.61,202.21-249.37,204.79c-139.77,2.58-254.1-50.85-256.77-195.45
						c-0.59-32.77,4.64-64.25,14.73-93.36c8.31-23.97,19.91-46.34,34.24-66.5c45.09-63.43,117.25-105.13,199.26-106.65
						c80.19-1.48,152.38,35.79,199.87,95.14c15.02,18.77,27.55,39.73,37.09,62.4C805.36,419.58,812.77,453.22,813.42,488.63z"/>
					<path class="st28" d="M554.63,694.42c-70.13,0-129.06-14.72-170.89-42.77c-50.08-33.59-76.12-85.29-77.38-153.66
						c-0.58-32.19,4.39-63.71,14.78-93.68c8.25-23.81,19.81-46.26,34.36-66.73c47.31-66.55,120.2-105.56,199.99-107.03
						c77.8-1.45,150.9,33.36,200.6,95.48c15.21,19.01,27.73,40.07,37.22,62.61c13.31,31.59,20.39,65.22,21.03,99.97
						c1.26,68.38-22.84,121-71.65,156.41c-42.57,30.89-104.34,47.94-178.62,49.31C560.9,694.39,557.75,694.42,554.63,694.42z
						 M560.13,232.33c-1.54,0-3.06,0.01-4.6,0.04c-79.2,1.47-151.56,40.2-198.53,106.27c-14.45,20.32-25.92,42.62-34.12,66.27
						c-10.32,29.76-15.26,61.07-14.68,93.04c1.25,67.74,27.01,118.94,76.57,152.18c43.37,29.09,105.39,43.74,179.27,42.37
						c73.91-1.37,135.32-18.3,177.58-48.96c48.29-35.04,72.15-87.15,70.89-154.89c-0.64-34.52-7.66-67.92-20.88-99.3
						c-9.43-22.38-21.86-43.3-36.96-62.18C706.3,266.73,635.61,232.33,560.13,232.33z"/>
				</g>
				<g class="st31">
					<g class="st32">
						<path class="st28" d="M563.55,687.62c139.77-2.59,252.04-60.19,249.37-204.79c-0.65-35.4-8.06-69.04-20.96-99.63
							c-9.26-22.03-21.4-42.44-35.85-60.8c-14.78-16.8-31.62-31.61-50.12-43.97c12.1,16.46,22.35,34.45,30.44,53.67
							c12.88,30.58,20.29,64.23,20.94,99.64c2.68,144.6-109.6,202.2-249.37,204.79c-63.44,1.17-121.64-9.2-166.54-34.4
							c3.27,5.54,6.85,10.79,10.67,15.81C398.55,668.88,476.05,689.24,563.55,687.62z"/>
					</g>
				</g>
				<g>
					<path class="st33" d="M552.91,701.63c-71.06,0-130.88-14.99-173.47-43.55c-51.41-34.47-78.13-87.43-79.42-157.41
						c-2.58-139.6,99.32-256.47,231.21-270.72c7.39-0.8,14.88-1.27,22.44-1.41c142.57-2.64,260.81,115.16,263.53,262.58l0,0
						c1.29,69.97-23.45,123.88-73.55,160.23c-43.34,31.45-106.01,48.8-181.24,50.19C559.23,701.6,556.05,701.63,552.91,701.63z
						 M560.1,236.94c-1.49,0-2.98,0.01-4.48,0.04c-136.5,2.52-245.42,119.55-242.81,260.88c1.22,66.15,26.3,116.09,74.53,148.44
						c42.58,28.56,103.68,42.96,176.62,41.59c72.96-1.35,133.46-17.98,174.96-48.09c47-34.1,70.22-84.94,69-151.09l0,0
						C805.31,348.94,694.58,236.94,560.1,236.94z"/>
				</g>
				<g>
					<path d="M314.99,433.96c-1.08,0-2.17-0.32-3.13-0.98c-43.92-30.25-65.7-72.47-59.76-115.84c5.35-39.07,32.35-72.41,68.78-84.93
						c37.65-12.94,78.92-1.18,113.23,32.27c2.18,2.13,2.23,5.63,0.1,7.81c-2.13,2.18-5.63,2.23-7.81,0.1
						c-31.68-30.87-67.87-41.43-101.93-29.73c-32.53,11.18-56.64,41.01-61.43,75.99c-5.35,39.08,14.73,77.44,55.08,105.24
						c2.51,1.73,3.15,5.17,1.42,7.68C318.47,433.13,316.75,433.96,314.99,433.96z"/>
				</g>
				<g>
					<g>
						<path d="M512.38,415.19c-25.1,21.38-39.2,53.25-45,93.04c-1.63,11.15-10.09,20.04-21.09,22.47
							c-55.36,12.26-99.36-47.05-73.32-114.85c34.31-87.75,126.25-79.81,146.66-31.44C524.14,395.11,521.22,407.66,512.38,415.19z"
							/>
					</g>
				</g>
				<g>
					<g>
						<path d="M597.64,412.84c26.24,19.96,42.07,51.02,50.05,90.43c2.24,11.04,11.18,19.45,22.3,21.28
							c55.95,9.19,96.62-52.45,66.89-118.71c-39.08-85.73-130.45-72.75-148.16-23.33C584.79,393.44,588.4,405.81,597.64,412.84z"/>
					</g>
				</g>
				<g>
					<path d="M590.91,483.45c0.28,14.95-14.2,35.5-32.53,35.84s-33.55-19.66-33.83-34.61c-0.28-14.95,14.5-19.23,32.83-19.57
						C575.7,464.77,590.63,468.49,590.91,483.45z"/>
				</g>
				<g>
					<path d="M527.01,543.35c-4.79,0-9.63-0.93-14.24-2.88c-11.78-4.98-19.78-15.68-22.54-30.13c-0.57-3,1.39-5.89,4.39-6.46
						c3-0.57,5.89,1.39,6.46,4.39c2.04,10.71,7.72,18.53,15.99,22.03c12.03,5.09,26.28,0.28,32.45-10.96
						c2.32-4.18,3.41-9.05,3.26-14.47c-0.06-2.02-0.3-4.16-0.71-6.38c-0.57-3,1.41-5.89,4.4-6.45c3-0.57,5.89,1.41,6.45,4.4
						c0.53,2.79,0.83,5.52,0.9,8.12c0.2,7.42-1.36,14.19-4.63,20.11C552.71,536.47,540.05,543.35,527.01,543.35z"/>
				</g>
				<g>
					<path d="M607.16,535.45c0,0-0.03,29.01-10.82,38.97c-19.19-26.48-54.49-25.51-72.2,1.99l-10.29-23.33l-0.41-15.05l1.47-3.25
						c14.14,7.01,31.73,0.92,39.38-15.39c2.98-0.06,5.96-0.14,8.85-0.22c8.69,16.12,27.05,21.12,40.85,12.76
						C605.86,534,607.16,535.45,607.16,535.45z"/>
				</g>
				<g>
					<path class="st5" d="M594.39,571.39c-17.65,20.84-49.71,21.72-68.48,1.88c5.47-13.24,18.37-22.74,33.62-23.16
						C574.8,549.69,588.19,558.46,594.39,571.39z"/>
				</g>
				<g>
					<path d="M589.78,541.57c-12.35,0-24.53-6.09-31.26-16.87c-3.6-5.69-5.54-12.37-5.74-19.83c-0.07-2.59,0.08-5.34,0.45-8.16
						c0.4-3.03,3.17-5.15,6.2-4.76c3.03,0.4,5.15,3.17,4.75,6.2c-0.29,2.25-0.42,4.4-0.36,6.41c0.15,5.44,1.51,10.24,4.05,14.25
						c6.87,11.01,21.92,14.98,33.56,8.88c5.48-2.87,12.38-9.12,14.19-22.58c0.41-3.02,3.18-5.13,6.21-4.74
						c3.02,0.41,5.15,3.19,4.74,6.21c-1.9,14.16-9.01,25.13-20.01,30.9C601.29,540.25,595.51,541.57,589.78,541.57z"/>
				</g>
				<g>
					<path d="M559.3,593.12c-14.14,0-27.7-5.8-37.4-16.05c-10.22-10.73-15.88-25.78-16.37-43.53l11.04-0.3
						c0.41,14.97,5.02,27.5,13.34,36.23c7.88,8.33,19.04,12.89,30.51,12.6c11.51-0.32,22.36-5.51,29.76-14.24
						c7.83-9.19,11.75-21.95,11.34-36.92l11.04-0.3c0.49,17.75-4.34,33.09-13.96,44.38c-9.41,11.11-23.22,17.73-37.87,18.13
						C560.25,593.11,559.77,593.12,559.3,593.12z"/>
				</g>
				<g>
					<path class="st28" d="M481.36,462.34L481.36,462.34c-3.17,0-5.74-2.57-5.74-5.74c0-10.74-4.3-19.13-12.11-23.64
						c-7.61-4.4-17.46-4.4-25.07,0c-7.81,4.51-12.11,12.9-12.11,23.64c0,3.17-2.57,5.74-5.74,5.74c-3.17,0-5.74-2.57-5.74-5.74
						c0-14.79,6.51-27.03,17.85-33.58c11.1-6.41,25.45-6.41,36.55,0c11.34,6.55,17.85,18.79,17.85,33.58
						C487.1,459.77,484.53,462.34,481.36,462.34z"/>
				</g>
				<g>
					<path class="st28" d="M696.22,462.75c-3.17,0-5.74-2.57-5.74-5.74c0-19.17-12.76-27.75-25.41-27.75
						c-12.65,0-25.41,8.58-25.41,27.75c0,3.17-2.57,5.74-5.74,5.74c-3.17,0-5.74-2.57-5.74-5.74c0-25.76,18.56-39.23,36.89-39.23
						c18.33,0,36.89,13.48,36.89,39.23C701.95,460.18,699.38,462.75,696.22,462.75z"/>
				</g>
			</g>
		</g>
		<g>
			<text transform="matrix(1 0 0 1 678.5596 888.6797)" class="st54 st55">Já</text>
			<text transform="matrix(1 0 0 1 250.5596 847.6797)" class="st54 st55">Freela</text>
		</g>
	</g>
</g>
<g id="verde">
</g>
<g id="preto">
</g>
</svg>
